<svg xmlns="http://www.w3.org/2000/svg" xmlns:xlink="http://www.w3.org/1999/xlink" width="500" zoomAndPan="magnify" viewBox="0 0 375 374.999991" height="500" preserveAspectRatio="xMidYMid meet" version="1.0"><defs><g/><clipPath id="8c264dc901"><path d="M 100.625 124.296875 L 230.375 124.296875 L 230.375 180.546875 L 100.625 180.546875 Z M 100.625 124.296875 " clip-rule="nonzero"/></clipPath></defs><g clip-path="url(#8c264dc901)"><path fill="#00adef" d="M 152.1875 130.820312 L 152.1875 142.640625 L 100.675781 146.554688 L 166.609375 146.554688 L 152.1875 148.902344 L 152.1875 154.21875 L 111.933594 157.277344 L 177.867188 157.277344 L 152.1875 160.648438 L 152.1875 169.382812 L 114.476562 172.25 L 180.410156 172.25 L 152.1875 175.234375 C 152.1875 178.1875 154.578125 180.582031 157.53125 180.582031 L 224.992188 180.582031 C 227.945312 180.582031 230.339844 178.1875 230.339844 175.234375 L 230.339844 130.820312 L 191.261719 157.902344 Z M 230.339844 124.296875 L 152.1875 124.296875 L 191.261719 151.382812 Z M 230.339844 124.296875 " fill-opacity="1" fill-rule="nonzero"/></g><g fill="#1c2a4e" fill-opacity="1"><g transform="translate(96.789682, 226.44169)"><g><path d="M 28.5 -30.28125 L 28.5 0 L 23.203125 0 L 23.203125 -12.765625 L 23.390625 -17.8125 L 21.875 -15.5 L 16.015625 -8.625 L 10.171875 -15.5 L 8.65625 -17.8125 L 8.890625 -12.765625 L 8.890625 0 L 3.59375 0 L 3.59375 -30.28125 L 4.015625 -30.28125 L 16.0625 -16.078125 L 28.03125 -30.28125 Z M 28.5 -30.28125 "/></g></g></g><g fill="#1c2a4e" fill-opacity="1"><g transform="translate(130.140882, 226.44169)"><g><path d="M 14.21875 -11.640625 L 14.21875 0 L 8.75 0 L 8.75 -12.03125 L -0.640625 -29.78125 L 5.375 -29.78125 L 11.640625 -16.828125 L 17.640625 -29.78125 L 23.625 -29.78125 Z M 14.21875 -11.640625 "/></g></g></g><g fill="#1c2a4e" fill-opacity="1"><g transform="translate(154.396429, 226.44169)"><g/></g></g><g fill="#1c2a4e" fill-opacity="1"><g transform="translate(163.791475, 226.44169)"><g><path d="M 19.859375 -4.828125 L 19.859375 0 L 3.453125 0 L 3.453125 -29.78125 L 19.015625 -29.78125 L 19.015625 -25.125 L 8.796875 -25.125 L 8.796875 -18.15625 L 16.921875 -18.15625 L 16.921875 -13.625 L 8.796875 -13.625 L 8.796875 -4.828125 Z M 19.859375 -4.828125 "/></g></g></g><g fill="#1c2a4e" fill-opacity="1"><g transform="translate(186.680542, 226.44169)"><g><path d="M 28.5 -30.28125 L 28.5 0 L 23.203125 0 L 23.203125 -12.765625 L 23.390625 -17.8125 L 21.875 -15.5 L 16.015625 -8.625 L 10.171875 -15.5 L 8.65625 -17.8125 L 8.890625 -12.765625 L 8.890625 0 L 3.59375 0 L 3.59375 -30.28125 L 4.015625 -30.28125 L 16.0625 -16.078125 L 28.03125 -30.28125 Z M 28.5 -30.28125 "/></g></g></g><g fill="#1c2a4e" fill-opacity="1"><g transform="translate(220.031746, 226.44169)"><g><path d="M 17.46875 -4.3125 L 6.828125 -4.3125 L 5.25 0 L -0.71875 0 L 11.875 -30.28125 L 12.296875 -30.28125 L 24.953125 0 L 19.140625 0 Z M 15.890625 -8.453125 L 12.765625 -16.578125 L 12.046875 -18.96875 L 11.359375 -16.578125 L 8.375 -8.453125 Z M 15.890625 -8.453125 "/></g></g></g><g fill="#1c2a4e" fill-opacity="1"><g transform="translate(245.525663, 226.44169)"><g><path d="M 3.453125 -29.78125 L 8.921875 -29.78125 L 8.921875 0 L 3.453125 0 Z M 3.453125 -29.78125 "/></g></g></g><g fill="#1c2a4e" fill-opacity="1"><g transform="translate(259.190973, 226.44169)"><g><path d="M 17.90625 -4.703125 L 17.90625 0 L 3.59375 0 L 3.59375 -29.78125 L 9.015625 -29.78125 L 9.015625 -4.703125 Z M 17.90625 -4.703125 "/></g></g></g></svg>